<mxfile host="app.diagrams.net" modified="2021-01-15T02:51:13.095Z" agent="5.0 (Macintosh; Intel Mac OS X 10_14_6) AppleWebKit/537.36 (KHTML, like Gecko) Chrome/87.0.4280.141 Safari/537.36" etag="tfjSarmwDfBDAmLpqBNk" version="14.1.2" type="github">
  <diagram id="1CrSvEnjZroo_zj7zNnm" name="第 1 页">
    <mxGraphModel dx="1251" dy="714" grid="0" gridSize="10" guides="1" tooltips="1" connect="1" arrows="1" fold="1" page="0" pageScale="1" pageWidth="1169" pageHeight="1654" math="0" shadow="0">
      <root>
        <mxCell id="0" />
        <mxCell id="1" parent="0" />
        <mxCell id="rgULQdDOQesWw2YOy1Te-4" value="" style="edgeStyle=orthogonalEdgeStyle;rounded=0;orthogonalLoop=1;jettySize=auto;html=1;fontColor=#FFFFFF;strokeColor=#224a88;" edge="1" parent="1" source="rgULQdDOQesWw2YOy1Te-1" target="rgULQdDOQesWw2YOy1Te-3">
          <mxGeometry relative="1" as="geometry" />
        </mxCell>
        <mxCell id="rgULQdDOQesWw2YOy1Te-1" value="&lt;font style=&quot;font-size: 17px&quot;&gt;数据智能组&lt;/font&gt;" style="rounded=0;whiteSpace=wrap;html=1;fontColor=#FFFFFF;fillColor=#224a88;strokeColor=none;" vertex="1" parent="1">
          <mxGeometry x="500" y="310" width="120" height="40" as="geometry" />
        </mxCell>
        <mxCell id="rgULQdDOQesWw2YOy1Te-6" value="" style="edgeStyle=orthogonalEdgeStyle;rounded=0;orthogonalLoop=1;jettySize=auto;html=1;fontColor=#FFFFFF;strokeColor=#224a88;" edge="1" parent="1" source="rgULQdDOQesWw2YOy1Te-3" target="rgULQdDOQesWw2YOy1Te-5">
          <mxGeometry relative="1" as="geometry" />
        </mxCell>
        <mxCell id="rgULQdDOQesWw2YOy1Te-8" value="" style="edgeStyle=orthogonalEdgeStyle;rounded=0;orthogonalLoop=1;jettySize=auto;html=1;fontColor=#FFFFFF;strokeColor=#224a88;" edge="1" parent="1" source="rgULQdDOQesWw2YOy1Te-3" target="rgULQdDOQesWw2YOy1Te-7">
          <mxGeometry relative="1" as="geometry" />
        </mxCell>
        <mxCell id="rgULQdDOQesWw2YOy1Te-10" value="" style="edgeStyle=orthogonalEdgeStyle;rounded=0;orthogonalLoop=1;jettySize=auto;html=1;fontColor=#FFFFFF;strokeColor=#224a88;" edge="1" parent="1" source="rgULQdDOQesWw2YOy1Te-3" target="rgULQdDOQesWw2YOy1Te-9">
          <mxGeometry relative="1" as="geometry" />
        </mxCell>
        <mxCell id="rgULQdDOQesWw2YOy1Te-3" value="&lt;span style=&quot;font-size: 17px&quot;&gt;方政&lt;/span&gt;" style="rounded=1;whiteSpace=wrap;html=1;strokeColor=#6c8ebf;fillColor=#dae8fc;glass=1;" vertex="1" parent="1">
          <mxGeometry x="500" y="380" width="120" height="40" as="geometry" />
        </mxCell>
        <mxCell id="rgULQdDOQesWw2YOy1Te-23" style="edgeStyle=orthogonalEdgeStyle;rounded=0;orthogonalLoop=1;jettySize=auto;html=1;exitX=0.5;exitY=1;exitDx=0;exitDy=0;entryX=0.5;entryY=0;entryDx=0;entryDy=0;strokeColor=#224A88;fontColor=#FFFFFF;" edge="1" parent="1" source="rgULQdDOQesWw2YOy1Te-5" target="rgULQdDOQesWw2YOy1Te-22">
          <mxGeometry relative="1" as="geometry" />
        </mxCell>
        <mxCell id="rgULQdDOQesWw2YOy1Te-5" value="&lt;span style=&quot;font-size: 17px&quot;&gt;数据仓库&lt;/span&gt;" style="rounded=0;whiteSpace=wrap;html=1;fontColor=#FFFFFF;fillColor=#224a88;strokeColor=none;" vertex="1" parent="1">
          <mxGeometry x="500" y="470" width="120" height="40" as="geometry" />
        </mxCell>
        <mxCell id="rgULQdDOQesWw2YOy1Te-30" style="edgeStyle=orthogonalEdgeStyle;rounded=0;orthogonalLoop=1;jettySize=auto;html=1;exitX=0.5;exitY=1;exitDx=0;exitDy=0;entryX=0.5;entryY=0;entryDx=0;entryDy=0;strokeColor=#224A88;fontColor=#FFFFFF;" edge="1" parent="1" source="rgULQdDOQesWw2YOy1Te-7" target="rgULQdDOQesWw2YOy1Te-29">
          <mxGeometry relative="1" as="geometry" />
        </mxCell>
        <mxCell id="rgULQdDOQesWw2YOy1Te-7" value="&lt;span style=&quot;font-size: 17px&quot;&gt;BI平台及数据中台&lt;/span&gt;" style="rounded=0;whiteSpace=wrap;html=1;fontColor=#FFFFFF;strokeColor=none;fillColor=#224a88;" vertex="1" parent="1">
          <mxGeometry x="666" y="470" width="158" height="40" as="geometry" />
        </mxCell>
        <mxCell id="rgULQdDOQesWw2YOy1Te-19" value="" style="edgeStyle=orthogonalEdgeStyle;rounded=0;orthogonalLoop=1;jettySize=auto;html=1;fontColor=#FFFFFF;strokeColor=#224A88;" edge="1" parent="1" source="rgULQdDOQesWw2YOy1Te-9" target="rgULQdDOQesWw2YOy1Te-18">
          <mxGeometry relative="1" as="geometry" />
        </mxCell>
        <mxCell id="rgULQdDOQesWw2YOy1Te-9" value="&lt;span style=&quot;font-size: 17px&quot;&gt;数据产品及数据运营&lt;/span&gt;" style="rounded=0;whiteSpace=wrap;html=1;fontColor=#FFFFFF;strokeColor=none;fillColor=#224a88;" vertex="1" parent="1">
          <mxGeometry x="300" y="470" width="170" height="40" as="geometry" />
        </mxCell>
        <mxCell id="rgULQdDOQesWw2YOy1Te-18" value="&lt;span style=&quot;font-size: 17px&quot;&gt;孙若男&lt;/span&gt;" style="rounded=1;whiteSpace=wrap;html=1;strokeColor=#6c8ebf;fillColor=#dae8fc;glass=1;" vertex="1" parent="1">
          <mxGeometry x="345" y="545" width="80" height="25" as="geometry" />
        </mxCell>
        <mxCell id="rgULQdDOQesWw2YOy1Te-21" value="&lt;span style=&quot;font-size: 17px&quot;&gt;苏海燕&lt;/span&gt;" style="rounded=1;whiteSpace=wrap;html=1;strokeColor=#6c8ebf;fillColor=#dae8fc;glass=1;" vertex="1" parent="1">
          <mxGeometry x="345" y="580" width="80" height="25" as="geometry" />
        </mxCell>
        <mxCell id="rgULQdDOQesWw2YOy1Te-22" value="&lt;span style=&quot;font-size: 17px&quot;&gt;陈杰&lt;/span&gt;" style="rounded=1;whiteSpace=wrap;html=1;strokeColor=#6c8ebf;fillColor=#dae8fc;glass=1;shadow=0;" vertex="1" parent="1">
          <mxGeometry x="520" y="545" width="80" height="25" as="geometry" />
        </mxCell>
        <mxCell id="rgULQdDOQesWw2YOy1Te-24" value="&lt;span style=&quot;font-size: 17px&quot;&gt;冯志伟&lt;/span&gt;" style="rounded=1;whiteSpace=wrap;html=1;strokeColor=#6c8ebf;fillColor=#dae8fc;glass=1;shadow=0;" vertex="1" parent="1">
          <mxGeometry x="520" y="580" width="80" height="25" as="geometry" />
        </mxCell>
        <mxCell id="rgULQdDOQesWw2YOy1Te-25" value="&lt;span style=&quot;font-size: 17px&quot;&gt;史彦楠&lt;/span&gt;" style="rounded=1;whiteSpace=wrap;html=1;strokeColor=#6c8ebf;fillColor=#dae8fc;glass=1;shadow=0;" vertex="1" parent="1">
          <mxGeometry x="520" y="610" width="80" height="25" as="geometry" />
        </mxCell>
        <mxCell id="rgULQdDOQesWw2YOy1Te-26" value="&lt;span style=&quot;font-size: 17px&quot;&gt;韩征男&lt;/span&gt;" style="rounded=1;whiteSpace=wrap;html=1;strokeColor=#6c8ebf;fillColor=#dae8fc;glass=1;shadow=0;" vertex="1" parent="1">
          <mxGeometry x="520" y="640" width="80" height="25" as="geometry" />
        </mxCell>
        <mxCell id="rgULQdDOQesWw2YOy1Te-27" value="&lt;span style=&quot;font-size: 17px&quot;&gt;张文晓&lt;/span&gt;" style="rounded=1;whiteSpace=wrap;html=1;strokeColor=#6c8ebf;fillColor=#dae8fc;glass=1;shadow=0;" vertex="1" parent="1">
          <mxGeometry x="520" y="670" width="80" height="25" as="geometry" />
        </mxCell>
        <mxCell id="rgULQdDOQesWw2YOy1Te-28" value="&lt;span style=&quot;font-size: 17px&quot;&gt;王开宇&lt;/span&gt;" style="rounded=1;whiteSpace=wrap;html=1;strokeColor=#6c8ebf;fillColor=#dae8fc;glass=1;shadow=0;" vertex="1" parent="1">
          <mxGeometry x="520" y="700" width="80" height="25" as="geometry" />
        </mxCell>
        <mxCell id="rgULQdDOQesWw2YOy1Te-29" value="&lt;span style=&quot;font-size: 17px&quot;&gt;张凯&lt;/span&gt;" style="rounded=1;whiteSpace=wrap;html=1;strokeColor=#6c8ebf;fillColor=#dae8fc;glass=1;" vertex="1" parent="1">
          <mxGeometry x="705" y="545" width="80" height="25" as="geometry" />
        </mxCell>
        <mxCell id="rgULQdDOQesWw2YOy1Te-31" value="&lt;span style=&quot;font-size: 17px&quot;&gt;张二鹏&lt;/span&gt;" style="rounded=1;whiteSpace=wrap;html=1;strokeColor=#6c8ebf;fillColor=#dae8fc;glass=1;" vertex="1" parent="1">
          <mxGeometry x="705" y="580" width="80" height="25" as="geometry" />
        </mxCell>
        <mxCell id="rgULQdDOQesWw2YOy1Te-32" value="&lt;span style=&quot;font-size: 17px&quot;&gt;吕金龙&lt;/span&gt;" style="rounded=1;whiteSpace=wrap;html=1;strokeColor=#6c8ebf;fillColor=#dae8fc;glass=1;" vertex="1" parent="1">
          <mxGeometry x="705" y="615" width="80" height="25" as="geometry" />
        </mxCell>
        <mxCell id="rgULQdDOQesWw2YOy1Te-33" style="edgeStyle=orthogonalEdgeStyle;rounded=0;orthogonalLoop=1;jettySize=auto;html=1;exitX=0.5;exitY=1;exitDx=0;exitDy=0;strokeColor=#6c8ebf;fontColor=#FFFFFF;fillColor=#dae8fc;" edge="1" parent="1" source="rgULQdDOQesWw2YOy1Te-31" target="rgULQdDOQesWw2YOy1Te-31">
          <mxGeometry relative="1" as="geometry" />
        </mxCell>
      </root>
    </mxGraphModel>
  </diagram>
</mxfile>
